<svg xmlns="http://www.w3.org/2000/svg" xmlns:xlink="http://www.w3.org/1999/xlink" width="1814.173" height="1133.858" viewBox="0 -38 480 300" xmlns:v="https://vecta.io/nano"><style><![CDATA[.N{stroke-linecap:round}.O{stroke-linejoin:round}.P{fill:#969696}.Q{fill:none}.R{fill:#d8dee0}.S{stroke:#d8dee0}.T{stroke:#4b4b4b}.U{fill:#211c1c}.V{stroke-linejoin:bevel}.W{stroke-width:.265}.X{fill-opacity:.706}.Y{stroke-width:.248}.Z{stroke-width:.413}]]></style><g transform="translate(79.183 -459.352)"><g class="R"><path d="M-53.48 550.1l4.983-.014c.38-.47.417.013.917.306 2.083 2.522 1.792 4.628 2.396 4.765.377.085.078-.703.36-1.066.158-.204 1.18.047 1.523.47.76.942-.365 1.088-1.374 1.028.265.285.133.55.157.828.496-.066.492.4.135.505l.2 1.192c.028.444-.047 1.333-.047 1.333l.157 6.987c.01.34-.28.53-.28.53l-1.833.046s-.505-.15-.52-.36l-.07-2.2-13.256.3.03 1.986c-.01.23-.426.533-.426.533l-1.772.07s-.404-.287-.415-.504l-.133-6.816-.114-1.526c.01-.402.133-1.2.133-1.2-.44-.152-.38-.623.1-.45.06-.305-.172-.465.114-.773-1.04.022-2-.1-1.355-1.138.328-.52 1.258-.667 1.42-.462.492.635.01 1.015.398 1.074.557.087.222-2.078 2.153-4.897.494-.244.618-.87.872-.356l5.05-.182c.07-.144.164-.4.25-.4s.194.205.246.38zm310.416-11.537c4.03 3.474 10.042 3.043 12.728.216 2.607-4.8 1.593-6.652-2.837-10.707 0 0 3.897-.717 2.756-4.815-.487-1.75-5.27-2.73-5.27-2.73s1.494-1.562-.567-4.383c-.8-1.083-4.053-1.437-4.053-1.437s.136-4.698-4.702-5.4-6.323 2.874-6.323 2.874-3.936-.586-6.405 1.653c-1.233 1.118-.486 4.67-.486 4.67s-2.683.522-3.9 2.37c-.628.962.486 3.306.486 3.306s-2.546 1.3-2.513 3.1a3.09 3.09 0 0 0 1.297 2.443s-6.158 3.902-3.405 7.833c4.562 6.513 13.782.8 13.782.8s2.998 1.324 4.62 1.365c1.65.042 4.783-1.15 4.783-1.15z"/><path d="M253.625 556.762h.276v9.798h-.276z" paint-order="normal"/><path d="M256.53 571.1c-.363-1.5-2.678-2.858-3.324-4.45-.54-5.82-.448-12.425 0-17.678 1.774-3.3 6.9-8.55 6.9-8.55l-1.46-.503s-3.13 4.646-5.3 5.713c-.397-2.167-.365-5.928-.365-5.928h-1.783s.344 2.557-.65 3.234c-1.6-.37-5.026-3.52-5.026-3.52l-1.702.575s5.553 3.448 7.053 5.605a183.77 183.77 0 0 1 .162 22.061c-.323.9-2.338 2.27-2.837 3.223l8.35.22z"/><use xlink:href="#A"/><use xlink:href="#B"/><path d="M180.37 545.592c4.03 3.474 10.04 3.043 12.728.216 2.607-4.8 1.593-6.652-2.837-10.707 0 0 3.897-.717 2.756-4.815-.487-1.75-5.27-2.73-5.27-2.73s1.493-1.562-.567-4.383c-.8-1.083-4.054-1.437-4.054-1.437s.136-4.698-4.702-5.4-6.323 2.874-6.323 2.874-3.936-.586-6.405 1.653c-1.233 1.118-.486 4.67-.486 4.67s-2.683.522-3.9 2.37c-.628.962.486 3.306.486 3.306s-2.546 1.3-2.513 3.1a3.09 3.09 0 0 0 1.297 2.443s-6.158 3.902-3.405 7.833c4.562 6.513 13.782.8 13.782.8s2.998 1.324 4.62 1.365c1.65.042 4.783-1.15 4.783-1.15z"/><path d="M179.965 578.138c-.363-1.5-2.678-2.858-3.324-4.45-.54-5.82-.448-12.425 0-17.678 1.774-3.3 6.9-8.55 6.9-8.55l-1.46-.503s-3.13 4.646-5.3 5.713c-.397-2.167-.365-5.928-.365-5.928h-1.784s.344 2.557-.65 3.234c-1.6-.37-5.026-3.52-5.026-3.52l-1.702.575s5.554 3.448 7.053 5.605a183.78 183.78 0 0 1 .162 22.06c-.323.9-2.338 2.27-2.838 3.223l8.35.22zm50.54-26.733c4.03 3.474 10.042 3.043 12.728.216 2.607-4.8 1.593-6.652-2.837-10.707 0 0 3.897-.717 2.756-4.815-.487-1.75-5.27-2.73-5.27-2.73s1.494-1.562-.567-4.383c-.8-1.083-4.053-1.437-4.053-1.437s.136-4.698-4.702-5.4-6.323 2.874-6.323 2.874-3.936-.586-6.405 1.653c-1.233 1.118-.486 4.67-.486 4.67s-2.683.522-3.9 2.37c-.628.962.486 3.306.486 3.306s-2.546 1.3-2.513 3.1a3.09 3.09 0 0 0 1.297 2.443s-6.16 3.902-3.405 7.833c4.562 6.513 13.782.8 13.782.8s2.998 1.324 4.62 1.365c1.65.042 4.783-1.15 4.783-1.15z"/><path d="M230.098 583.95c-.363-1.5-2.678-2.858-3.324-4.45-.54-5.82-.448-12.425 0-17.678 1.774-3.3 6.9-8.55 6.9-8.55l-1.46-.503s-3.13 4.646-5.3 5.713c-.397-2.167-.365-5.928-.365-5.928h-1.784s.344 2.558-.65 3.234c-1.6-.37-5.026-3.52-5.026-3.52l-1.702.575s5.554 3.448 7.053 5.605a183.78 183.78 0 0 1 .162 22.06c-.323.9-2.338 2.27-2.838 3.223l8.35.22z"/><use xlink:href="#A" x="-28.22" y="6.942"/><use xlink:href="#B" x="-28.222" y="6.942"/><use xlink:href="#A" x="-15.792" y="2.272"/><use xlink:href="#B" x="-15.793" y="2.272"/><path d="M-17.695 552.29c2.14.04 5.757-.054 6.333.444.84.73 1.356 3.68 2.183 4.527.094-.355.027-.934.342-.96 1.103-.098 1.83.856 1.543 1.02-.585.192-1.14.147-1.6.23.1.503.37.975.428 1.49.075.682-.102 1.368-.125 2.054l-.01 5.622-2.426-.034.04-1.93-13.364-.195c-.043 1.745.01.106-.025 1.893l-2.38-.038.067-5.36c.046-.356-.188-1.025-.207-2.09.092-.682.677-1.625.677-1.625-.515-.04-1.796.006-1.813-.3-.026-.45 1.027-1.015 1.637-.873.282.064.108 1.083.312.86 1.132-1.248 1.62-4.363 2.452-4.568 1.108-.274 3.94-.215 5.926-.16z" class="S W"/><path d="M279.42 563.103c-.087.16-.074.166-.037.237.102.198.766.18.905.1.13-.083.188-.18.3-.26.05-.04.153-.048.156-.1 0-.1-.076-.282-.06-.423.024-.205.166-.425.202-.63.02-.113-.2-.437-.2-.474s.103-.917.104-.957a47.93 47.93 0 0 0-.214-1.753c-.028-.195-.1-.483-.045-.592.015-.037.104-.048.104-.088l-.015-1.722c.282 0 .116.504.312.786.02.03-.14.276-.154.433-.01.1.224.418.233.648l.024.76-.062.843c-.01.288.048.56.048.835 0 .405.198.917.132 1.174-.033.126-.07.187-.08.276-.017.132.072.365.082.555.01.18-.075.62-.064.72a.68.68 0 0 0 .247.072c.033.002.1.006.23.033.224.048.516.042.772-.055.066-.025.05-.205.015-.297-.02-.052-.44-.158-.46-.283s.212-.323.234-.443c.016-.088-.035-.265-.035-.265s.117-.153.102-.316-.016-.683-.016-.683.036-.008.1-.254.07-.917.072-1.26.048-.428.037-.532-.022-.06-.037-.252l-.024-.748s-.05-.083-.05-.173.125-.105.195-.426-.113-.947-.095-1.422c.01-.275.12-.568.113-.864 0-.224-.082-.433-.116-.67-.012-.08.1-.163.1-.223s-.1-.2-.082-.3c.02-.132.12-.185.163-.312.064-.187-.048-.362-.12-.546-.1-.232-.2-.434-.338-.496a.49.49 0 0 1 .026-.368c.05-.115.176-.147.2-.282s-.076-.288-.06-.43.148-.34.148-.4-.06-.742-.06-.742l.378 1.692c.03.252.335.875.364 1.336.01.175-.014.355-.074.52-.032.088-.12.15-.148.237-.093.278-.134.594-.074.876.01.048.115.014.134.06s-.1.134-.06.148c.127.036.304-.045.43-.074.133-.213.27-.352.3-.482a5.66 5.66 0 0 1-.04-.93v-2.284c-.156-.432-.217-.904-.32-1.35l.156-.163s-.26-1.377-.675-1.952c-.198-.274-1.275-.522-1.484-.727-.077-.075-.125-.24-.052-.32.058-.063.143-.255.14-.413.092.01.157-.336.148-.444 0-.036-.073-.01-.08-.04-.035-.16.056-.602-.08-.888-.1-.2-.603-.456-.942-.346-.48.156-.813.512-.768 1.047.01.1-.014.124-.073.2a4.74 4.74 0 0 0 .105.48c.01.043.1.07.1.07s.084.347.137.423c.07.1-.01.17-.126.297s-1.385.604-1.573 1.017c-.255.557-.68 1.892-.68 1.892l-.42 1.722c.02.615.192 1.412.148 1.84a1.38 1.38 0 0 1-.052.271.83.83 0 0 0 .05.622c.1.207.305.138.508.295.1.078.246.072.34-.005s-.15-.322-.25-.44c.06-.015.368.298.382.225.02-.104-.04-.405-.044-.64 0-.2-.157-.3-.225-.477s-.103-.332-.1-.522l.1-.892c.01-.202.07-.53.102-.73.07-.434.42-.955.42-.955s.097.47.082.697c-.022.315-.132.58-.106.838.017.174.15.154.197.293.073.218-.08.4-.113.57-.068.36-.234.918-.038 1.214s.738 3.697.866 4.266c.054.24-.13.487-.113.733.035.514.352 1.222.393 1.952.01.178-.032.364.023.545.03.102.098.108.113.213s-.022.194-.016.297c.01.12.103.238.038.33s-.27.288-.356.45zm47.453-17.028c.086 0 .164.037.277.1.243-.17.744.355.916.746.088.2-.01.543.036.754.033.17.16.27.202.447.05.212-.037.442.001.655.03.166.117.288.2.436.1.18.26.336.304.537.115.534.03 1.212.117 1.8.073.5.28 1.1.34 1.507s.04.623.058.853.01.35.048.528c.022.095.057.197.084.293a1.8 1.8 0 0 1-.177.546c-.037.024-.316.158-.437.17-.182-.06-.056-.24-.043-.208 0 0 .27-.024.304-.126.02-.058.055-.323-.094-.37-.094.234-.064.46-.22.428-.1-.022.02-.358.023-.537.001-.074-.014-.15 0-.222.023-.117.162-.2.137-.33-.023-.122-.1-.238-.235-.262-.06-.01-.137-.037-.16.02-.088.225.016.93-.023 1.425s-.226.796-.187 1.367c.02.285-.053.826-.028.972.063.062.062.144 0 .2.065.087.014.243.035.322.18.362.048 1.374.012 1.846s-.112.674-.035.9c-.084.134.03.26-.245.245a.88.88 0 0 0 .026.584c.05.123.243.27.243.27.08.073.1.32-.037.37-.078.026-.272.02-.377.048.015.142-.263.078-.408.053-.26-.045-.175-.164-.195-.287-.05-.326.056-.667 0-.993-.016-.096-.088-.175-.097-.276-.01-.132.132-.2.104-.32a17.14 17.14 0 0 1-.127-.969v-1.322c0-.054-.054-.074-.05-.135 0-.044.032-.06.03-.1s-.07-.1-.08-.138c-.012-.053.015-.1.012-.164-.01-.186-.104-.363-.105-.55-.01-1.528-.13-1.678-.187-2.243-.065.25-.113.675-.128 1.016-.015.335.056.67.035 1.005-.014.22-.07.54-.105.654-.01.038.102.03.1.063-.001.025-.1.003-.104.077 0 .083.097.63.102.93 0 .146-.025.316-.03.46-.01.376.125.978.123 1.122-.001.046-.046.03-.058.07-.05.16.04.374.01.537-.02.087-.06.186-.07.275-.012.12.058.204.035.32-.02.105-.07.247-.175.27-.204.043-.656.032-.736-.2-.057-.172.288-.543.34-.84.015-.088.026-.188-.012-.27-.062-.13-.346-.156-.322-.293.1-.53-.224-1.22-.25-1.86-.043-1 .112-1.158-.512-3.288-.044-.15-.518-.142-.573-.274-.122-.292-.04-.805-.03-1.235s-.08-.992-.04-1.636.164-1.78.328-2.2.24-.307.3-.445-.012-.173.047-.348.312-.46.374-.654-.02-.336.045-.463.317.037.383-.282.354-1.038.65-1.226c.147-.094.242-.13.328-.13zm-2.083 8.245c-.014.036.04.187.04.2s.07-.1.07-.164c-.038.006-.082-.018-.1-.047z"/></g><path d="M371.9 757.155c-41.678-14.366-450.715 12.75-656.637 1.526-34.545-1.883-62.718-4.77-62.318-14.73-178.224-15.593-113.883-137.7 258.613-176.6 24.687-.855 61.697-1.1 93.613-.615l31.435.476 2.64 2.005 6.518-.46c1.1 0 2.692.078 16.72.014s31.917.584 34.23.627c6.883.13 3.312-3.7 16.732 5.212.682.454.053 8.8 4.576 11.687s16.622 7.396 23.1 7.595 22.535-19.098 29.126-19l15.486.008c15.456-.24 32.324.3 49.602-3.638 10.13-2.3 11.44-4.223 19.654-5.28 2.676-.344 29.488-3.583 51.465-4.405s92.676-2.203 116.857-.218c16.253 57.1 48.65 121.464 45.358 193.18-.023.426-92.682 4.022-96.76 2.617z" fill="#e7d9d1" paint-order="stroke fill markers"/><g class="S"><path d="M-85.26 125.5c.78-.625 1.323-.934 2.516-.845 1.7.447 1.462.4 1.325 1.565-1.495-.165-2.616-.503-3.84-.72z" stroke-width=".168" class="O R"/><path d="M-48.305 158.452l-.01-21c0-3.977-34.338-12.6-34.338-12.6" stroke-width=".5" class="Q"/></g><path d="M-219.462 681.643c38.503-1.415 191.494 9.35 242.592 18.26 44.237 7.714 224.662-3.25 282.56 11.315 51.485 12.95 137.324-11.016 136.2-3.73l-19.28 123.9-630.15-16.058" fill="#cac7c6"/><path d="M189.28 570.758h1.4v144.587h-1.4z" fill="#3e646f" paint-order="fill markers stroke"/><path d="M358.717 340.024v-13.142" stroke-width=".565" class="Q S"/><path d="M200.918 616.853l225.054.042" stroke-dasharray="6, 6" class="N T U"/><path d="M105.387 576.414c-.454 1.326-1.226 2.603-1.286 4.004-.056 1.33.48 2.628.895 3.894 1.326 4.054 4.802 7.497 5.058 11.754.435 7.218-6.12 20.814-6.12 20.814s-45.635-.283-71.866.525c-13.856.427-25.194-1.083-25.336 6.983-.08 4.632 15.628 26.207 33.6 26.227 61.707.07 31.9 22.44 55.187 28.662s15.683 2.438 34.76 3.788c49.594 3.5 49.56 2.072 49.56 2.072l.094-31.194-.08-36.522s-22.493.977-35.28-.3c-4.765-.476-2.856-9.217-3.28-13.987-.3-3.28-2.12-9.86-2.12-9.86s-8.66-1.697-19.117-5.932c-6.008-2.433-6.404-12.74-6.404-12.74l-6.296-3.57-1.963 5.385z" fill="#e76c5b" paint-order="normal" class="X"/><g class="T"><path d="M230.5 620.917l5.997.01m-11.52 4l5.997.01m-11.473-4l5.997.01" stroke-width=".989" class="N U"/><path d="M227.978 616.158l-5.53-7.596 11.054.024z" fill="#4b4b4b" stroke-width=".403" class="O"/><path d="M220.7 704.13l14.6.43" stroke-width=".971" class="N Q"/><g transform="rotate(1.691 -258.004 8895.661)" fill="#8f9293" class="N"><path d="M-15.223 694.516l-4.204 5.917"/><path d="M-19.428 694.516l4.204 5.917m6.794-5.917l-4.204 5.917"/><path d="M-12.635 694.516l4.204 5.917"/></g></g><rect width="20" height="145.181" x="179.98" y="574.509" ry="4.303" fill="#5bc7e7" paint-order="normal" class="X"/><path d="M74.336 554.766s2.186-7.675 4.617-10.263c1.158-1.24 2.836-2 4.443-2.653 5.127-2.082 26.784-7.03 26.784-7.03 1.04-.112 3.33-.45 3.84.577s-1.215 2.02-2.22 2.425c-5.72 2.323-24.104 7.804-25.816 9.12-3.04 2.338-6.288 9.276-6.288 9.276s-1.72-1.635-2.187-1.752c-.25-.053-1.3.08-3.174.298z" stroke-width=".644" stroke="#969696" class="P"/><path d="M117.67 575.82c-.75-1.955.8-1.414 1.595-1.998s1.212-1.255 2.064-1.57 2.945 1.244 3.98 1.1 2.84 1.4 3.778 2.17.525.368.68 1.806-1.4 4.044-3.978 4.576-7.365-4.128-8.116-6.083z" fill="#e78c7d"/><g stroke="#969696"><g class="P"><path d="M81.075 561.364l-4.357-.14c.55.67.326 1.62-.123 2.082l4.52.144c-.548-.653-.45-1.714-.038-2.087zm10.223-2.12c-2.782-.8-9.427-1.436-10.146-3.035-1.138-.154-.96-1.703-.295-5.82.24-1.1.897-3.773 1.082-4.332-.403-.146-1.593.3-1.952.44-.427 1.662-.547 3.554-.734 5.263-.3 2.782-.43 5.515-.603 8.05l11.776.348c.377-.257 1.38-.816.872-.915z" paint-order="fill markers stroke" stroke-width=".104"/><path d="M89.937 563.934l-21.917-.72c.535 1.218.327 2.03-.073 3.223l21.9.712c-.43-1.037-.146-2.522.095-3.215z" stroke-width=".147" paint-order="fill markers stroke"/></g><path d="M81.34 545.856l7.235.117c1.3.02 3.914 7.796 4.017 10.88.056 1.67-1.657 3.504-2.193 3.484l-11.976-.382c.312-5.288.893-8.912 1.285-13.496z" stroke-width=".62" class="O Q"/><g transform="matrix(-.99949 -.031936 -.03277 .999463 0 0)"><rect width="6.665" height=".339" x="-100.663" y="557.505" ry=".036" rx="0" fill="#8a8a8a" stroke-width=".827"/><use xlink:href="#C" class="N O P Y"/></g><path d="M89.794 567.267L68 566.57" fill="#8a8a8a" stroke-width=".3" class="N"/><g transform="matrix(-.99949 -.031936 -.03277 .999463 0 0)" class="N O P Y"><use xlink:href="#D"/><use xlink:href="#D" x="-3.523" y=".078"/><use xlink:href="#D" x="7.046" y=".051"/><use xlink:href="#D" x="10.567" y=".012"/><use xlink:href="#C" x="10.576" y=".066"/></g><path d="M93.492 562.06c4.795.153 4.52 7.585-.27 7.43h0l-28.86-.9c-5.214-.096-4.596-7.737.394-7.493l5.736.146 5.538-.266 5.805.174c1.7.032 3.665.338 5.04.545 2.367.36 6.688.356 6.688.356" stroke-width=".572" class="Q"/><g class="P"><path d="M-110.927 558.863c1.968.475 3.188 2.478 2.726 4.48s-2.43 3.245-4.4 2.78-3.2-2.46-2.75-4.464 2.413-3.258 4.386-2.806m28.73.03c1.97.475 3.188 2.48 2.725 4.48s-2.433 3.245-4.404 2.78-3.2-2.464-2.746-4.467 2.417-3.256 4.4-2.8" paint-order="fill markers stroke" transform="matrix(-.99949 -.031936 -.03277 .999463 0 0)" stroke-width=".37" stroke-linecap="square"/><g class="N"><path d="M89.976 563.84l-21.992-.703" stroke-width=".301"/><path d="M-99.93 558.372c.6.147.97.767.83 1.386s-.74 1.004-1.34.86-.974-.762-.836-1.382.736-1.007 1.336-.866m5.814-.015c.6.147.97.767.83 1.386s-.74 1.004-1.34.86-.974-.762-.836-1.382.736-1.008 1.336-.866" stroke-width=".277" transform="matrix(-.99949 -.031936 -.03277 .999463 0 0)" class="O"/></g><path d="M78.405 559.852l-21.365-.695s-.1-2.36.153-3.502c.254-1.2.748-3.445 1.34-3.426l3.507.1s.003-.027.053-1.596c.012-.376.457-.85.83-.837l4.936.12c.384.012.793.463.784.85l-.042 1.62 9.947.345z" class="O Z"/><path d="M63.96 549.765l.028-.85-.506-.484" stroke-width=".355"/><path d="M83.176 549.357l-.168.1s-.094.087.01-.16c-.233-.336-.195-1.03.37-1.375s1.3.15 1.3.15l.313-.05-.457.324s.272.337.293.456-.062.08-.04.177.267.227.264.332c.004.106-.095.07-.137.152s-.04.225-.077.333-.022.16-.13.308-.4-.142-.6.483.544 3.014.7 3.116 2.012-.01 2.07-.135.2-.34.2-.34.126-.07.156.03c-.187.403.46.077.54.2s-.023.383-.126.54-1.6.324-1.6.324 1.55.256 1.992.622-.067 2.418-.067 2.418-.576 1.365-.42 1.805c.26.6.915.592 1.198.63s.17.467-.038.642c-.214.175-2.44 0-2.536-.094s-.063-.415-.063-.415l.3-1.728c.098-.137.13-.05.205-.244s.316-1.497.228-1.6-.25.075-.835-.026c.578.512-.236.8-.236.8l-.127 2.163-4.512-.05-.007-7.57s.245-.298.692.01c.14-1.02.885-1.297 1.098-1.698s.25-.654.25-.654z" stroke-width=".047"/><g class="N"><path d="M89.265 540.286L114 531.55" stroke-width="1.533"/><path d="M82.4 548.72l7.956 11.598" stroke-width=".754"/><g class="V"><path d="M86.512 542.468l11.777-4.278-1.606-1.422-15.94 5.913" stroke-width="1.118"/><path d="M85.296 556.947l-2.333-4.023.8-.426 2.773 4.95" stroke-width=".783"/></g></g><path d="M130.708 577.962c.985-.114 1.546-1.203 1.268-2.105-1.083-1.816-1.644-4.6-2.76-6.233l-.487 1.662c1.176 2.04 1.422 4.686 1.98 6.676z" stroke-width=".026" paint-order="fill markers stroke"/><path d="M133.322 572.468L118.718 539.2" stroke-width=".775" class="N"/><path d="M112.833 536.7s.3-4.815 1.597-5.5 1.8.832 2.28 1.967c1.294 2.995 7.597 21.803 10.36 29.637.724 2.053 2.563 10.052 2.563 10.052-.655.2-1.208.283-2.208-1.488-5.56-9.735-13.96-29.995-13.96-29.995" stroke-width=".626"/><path d="M-491.43 316.054c.2.032.34.167.3.302s-.26.22-.47.188-.342-.166-.293-.302.258-.22.47-.2" transform="matrix(-.714497 -.699638 -.689827 .723974 0 0)" stroke-width="1.949" class="N O"/><path d="M127.5 565.95l4.9 7.303" stroke-width=".707"/><path d="M127.353 564.595l6.018 8.523" stroke-width=".855"/><path d="M132.978 571.904l-1.963 6.183" stroke-width=".725"/><path d="M131.67 579l1.77-5.684" stroke-width=".736"/><path d="M118.347 538.1l9.392 19.287-1.08.9-6.568-14.506" stroke-width=".817" class="V"/><path d="M119.796 540.106l-1.9-3.228" stroke-width=".313"/><path d="M120.3 543.378l-2.17-5.777" stroke-width=".589"/></g><g class="Q Z"><path d="M91.543 559.108l-8.34-1.578c-1.15-.328-2.973-1.388-2.956-2.745.04-3.02 1.827-8.908 1.827-8.908"/><path d="M83.498 545.807l-.342 11.603"/></g><g class="P"><path d="M92.16 551.327l-.437 1.043" stroke-width=".219"/><path d="M90.862 559.178l-.715-5.152" stroke-width=".149"/><path d="M48.398-559.667c.098.033.152.14.122.24s-.13.16-.23.133-.162-.127-.14-.23.12-.17.22-.15l-.033.192z" transform="matrix(.996857 -.079216 -.074997 -.997184 0 0)" stroke-width=".051" stroke-dashoffset="75.59055328" paint-order="fill markers stroke"/><g stroke-width=".05"><path d="M85.473 555.7s2.5-.487 2.432-1.242c-.28.001-.338-.001-.338-.001l.133-.05-.135-.058.102-.043-.2-.1s.165-.584.184-.8.255-.334.146-.5c-.047-.016-.215.064-.217.003-.005-.177-.032.046-.066.06a.71.71 0 0 0-.307.402c-.03.172-.054.914-.054.914l-.132.062.097.036-.132.046.096.053-2.722.045z"/><path d="M88.202 555.25l.782 3.227c.16.094.512-.188.733-.08.164.08.454.388.3.472-.574.297-1.26.308-1.85.47-.2.052-.396-.484-.396-.484l-.065-.888c-.14-.8-.656-2.342-.656-2.342z"/></g><g class="N"><path d="M81.8 554.336l11.516-12.058" stroke-width="1.229"/><path d="M80.508 557.347l5.483-5.903-.692-2.044-5.392 6.264" stroke-width=".897" class="V"/></g></g></g><path d="M-4.2 566.492l5 .07.02-1.005-1.93-5-.977-.018-2.12 4.962z" class="R S W"/><path d="M-113.502 616.87l291.953.01" stroke-width="1.043" stroke-dasharray="6.25506027, 6.25506027" class="N T U"/><g class="R"><path d="M443.634 451.477l-14.783 7.634-2.037-4.214-100.317 49.55 3.253 1.15 13.514-6.675v34.56l-8.42 4.513h-.375V561.6l116.37.032v-47.854l7.082.814zm-95.298 50.516l.493.057h-.608z" paint-order="normal"/><path d="M281.198 547.702c-2.38.215-4.734.496-6.494 1.3-2.012.92-7.298 4.675-7.464 4.74s-.62.12-.993.153-.255.2-.255.2l-2.3.612s-.483.043-.713.13c-1.593.707-4.287 1.87-5.133 3.177-.033.118.04.1-.06.4s-.684.934-.716 1.263.18.365.17.507-.032.16-.053.304.127.337.098.448c-.045.14-.048.2.065.248.1.038.114.03.284.124s.566.374.512.653-.666.258-.76.437-.003.308.03.335-.097.14.734.303 4.213-.057 4.285-.017a3.58 3.58 0 0 1 .22.142l.567-.05c.36.787 1.815 1.726 2.2 1.715s1.628-.04 2.02-.182 1.754-1.133 2.002-1.88l21.5-2.117c.468.848 2.08 1.707 2.486 1.717s1.476-.03 2.035-.253c1.154-.698 1.68-1.403 1.93-2.652l.75-.05c1.828-.727 2.77-.493 3.176-1.935-.014-.117-.243-.12-.257-.2s.068-.535.07-.805c.001-.536-.07-1.432-.128-1.602-.02-.053-.144.003-.162-.05-.14-.42-.83-1.577-.948-1.783s-.97-.934-.97-.934l-.233-.38c-.083-.106-.952-.68-1.093-.825l-2.788-2.965s1.472-.25.946-.437c-.344-.123-1.488-.14-2.076-.15s-1.3.002-1.3.002l-.592.03s-.15-.138-.13-.245.28-.162.243-.26.003-.077-.275-.034-1.272.546-1.272.546l-8.153.248-1.02.1z"/><use xlink:href="#E" paint-order="normal"/><use xlink:href="#E" y="5.249" paint-order="normal"/></g><path d="M130.387 575.22l.6 2.47c.393.37 1.315.553 1.204 1.133s-.618.5-.82.66c-.188.148-.257 1.068-.257 1.068s.284.962.212 1.162-1.086.724-1.84 1.127c-.17.1-.57.06-.57.06s.012.25-.073.317c-.915.718-2.256.76-2.256.76s.052.15.002.154c-2.68.17-5.63-2.298-7.355-4.574-.01-.012.113-.108.113-.108l-2.07-2.624-.1.045-1.188-1.252s-.352-.182-.656-.464c-.07-.064-.03-.188-.072-.272-.02-.04-.046-.085-.086-.105s-.13-.006-.13-.006l-.938-.934c-.03-.027.12-.072.12-.072l.262.044.924.443c.04.106.043.112.147.18l.374.016c.05.003.148.08.204.14l.003.07.28.075.095.086s1.14-.835 2.22.157c2.34 2.15 4.572 1.847 4.956 1.828 1.568-.074 3.3-1.778 4.2-2.676.32-.32.72-.33.965-.28l1.186-.288c.827-.203.944.14.98.5.027.27-.213.647-.632 1.156z" class="P"/></g><defs><path id="A" d="M235.252 556.186c2.325 1.848 5.793 1.62 7.343.115 1.504-2.558.92-3.538-1.637-5.695 0 0 2.248-.38 1.6-2.56-.28-.93-3.04-1.452-3.04-1.452s.862-.83-.327-2.332c-.456-.576-2.34-.764-2.34-.764s.08-2.5-2.713-2.867-3.648 1.53-3.648 1.53-2.27-.312-3.695.88c-.7.595-.28 2.485-.28 2.485s-1.548.278-2.245 1.26c-.363.5.28 1.758.28 1.758s-1.47.686-1.45 1.644c.017.87.748 1.3.748 1.3s-3.553 2.075-1.964 4.166c2.632 3.464 7.95.42 7.95.42s1.73.704 2.666.726c.953.022 2.76-.612 2.76-.612z"/><path id="B" d="M235.02 573.498c-.2-.803-1.545-1.52-1.918-2.366-.3-3.096-.258-6.6 0-9.403 1.023-1.755 3.976-4.55 3.976-4.55l-.842-.268s-1.806 2.47-3.064 3.04c-.23-1.153-.2-3.153-.2-3.153h-1.03s.198 1.36-.374 1.72c-.918-.197-2.9-1.873-2.9-1.873l-.982.306s3.204 1.834 4.07 2.98c.235 3.433.353 6.937.093 11.735-.186.478-1.35 1.207-1.637 1.714l4.818.117z"/><path id="C" d="M-99.096 564.124c.537.132.87.687.743 1.242s-.663.9-1.2.77-.872-.683-.75-1.24.66-.903 1.197-.777"/><path id="D" d="M-102.622 564.165c.537.132.87.687.743 1.242s-.663.9-1.2.77-.872-.683-.75-1.24.66-.903 1.197-.776"/><path id="E" d="M253.828 556.475a.283.283 0 0 1-.129.551.283.283 0 0 1 .127-.552"/></defs></svg>